<svg width="306" height="455" viewBox="0 0 306 455" fill="none" xmlns="http://www.w3.org/2000/svg">
<rect width="306" height="455" fill="white" style="fill:white;fill-opacity:1;"/>
<path d="M66.1018 218.002H70.2418V220H63.5818V207.436H66.1018V218.002ZM74.1216 208.84C73.6776 208.84 73.3056 208.702 73.0056 208.426C72.7176 208.138 72.5736 207.784 72.5736 207.364C72.5736 206.944 72.7176 206.596 73.0056 206.32C73.3056 206.032 73.6776 205.888 74.1216 205.888C74.5656 205.888 74.9316 206.032 75.2196 206.32C75.5196 206.596 75.6696 206.944 75.6696 207.364C75.6696 207.784 75.5196 208.138 75.2196 208.426C74.9316 208.702 74.5656 208.84 74.1216 208.84ZM75.3636 210.028V220H72.8436V210.028H75.3636ZM81.3733 211.486C81.6973 211.006 82.1413 210.616 82.7053 210.316C83.2813 210.016 83.9353 209.866 84.6673 209.866C85.5193 209.866 86.2873 210.076 86.9713 210.496C87.6673 210.916 88.2133 211.516 88.6093 212.296C89.0173 213.064 89.2213 213.958 89.2213 214.978C89.2213 215.998 89.0173 216.904 88.6093 217.696C88.2133 218.476 87.6673 219.082 86.9713 219.514C86.2873 219.946 85.5193 220.162 84.6673 220.162C83.9233 220.162 83.2693 220.018 82.7053 219.73C82.1533 219.43 81.7093 219.046 81.3733 218.578V220H78.8533V206.68H81.3733V211.486ZM86.6473 214.978C86.6473 214.378 86.5213 213.862 86.2693 213.43C86.0293 212.986 85.7053 212.65 85.2973 212.422C84.9013 212.194 84.4693 212.08 84.0013 212.08C83.5453 212.08 83.1133 212.2 82.7053 212.44C82.3093 212.668 81.9853 213.004 81.7333 213.448C81.4933 213.892 81.3733 214.414 81.3733 215.014C81.3733 215.614 81.4933 216.136 81.7333 216.58C81.9853 217.024 82.3093 217.366 82.7053 217.606C83.1133 217.834 83.5453 217.948 84.0013 217.948C84.4693 217.948 84.9013 217.828 85.2973 217.588C85.7053 217.348 86.0293 217.006 86.2693 216.562C86.5213 216.118 86.6473 215.59 86.6473 214.978ZM94.5725 211.576C94.8965 211.048 95.3165 210.634 95.8325 210.334C96.3605 210.034 96.9605 209.884 97.6325 209.884V212.53H96.9665C96.1745 212.53 95.5745 212.716 95.1665 213.088C94.7705 213.46 94.5725 214.108 94.5725 215.032V220H92.0525V210.028H94.5725V211.576ZM99.6819 214.978C99.6819 213.97 99.8799 213.076 100.276 212.296C100.684 211.516 101.23 210.916 101.914 210.496C102.61 210.076 103.384 209.866 104.236 209.866C104.98 209.866 105.628 210.016 106.18 210.316C106.744 210.616 107.194 210.994 107.53 211.45V210.028H110.068V220H107.53V218.542C107.206 219.01 106.756 219.4 106.18 219.712C105.616 220.012 104.962 220.162 104.218 220.162C103.378 220.162 102.61 219.946 101.914 219.514C101.23 219.082 100.684 218.476 100.276 217.696C99.8799 216.904 99.6819 215.998 99.6819 214.978ZM107.53 215.014C107.53 214.402 107.41 213.88 107.17 213.448C106.93 213.004 106.606 212.668 106.198 212.44C105.79 212.2 105.352 212.08 104.884 212.08C104.416 212.08 103.984 212.194 103.588 212.422C103.192 212.65 102.868 212.986 102.616 213.43C102.376 213.862 102.256 214.378 102.256 214.978C102.256 215.578 102.376 216.106 102.616 216.562C102.868 217.006 103.192 217.348 103.588 217.588C103.996 217.828 104.428 217.948 104.884 217.948C105.352 217.948 105.79 217.834 106.198 217.606C106.606 217.366 106.93 217.03 107.17 216.598C107.41 216.154 107.53 215.626 107.53 215.014ZM116.049 211.576C116.373 211.048 116.793 210.634 117.309 210.334C117.837 210.034 118.437 209.884 119.109 209.884V212.53H118.443C117.651 212.53 117.051 212.716 116.643 213.088C116.247 213.46 116.049 214.108 116.049 215.032V220H113.529V210.028H116.049V211.576ZM131.346 210.028L125.172 224.716H122.49L124.65 219.748L120.654 210.028H123.48L126.054 216.994L128.664 210.028H131.346ZM140.272 208.84C139.828 208.84 139.456 208.702 139.156 208.426C138.868 208.138 138.724 207.784 138.724 207.364C138.724 206.944 138.868 206.596 139.156 206.32C139.456 206.032 139.828 205.888 140.272 205.888C140.716 205.888 141.082 206.032 141.37 206.32C141.67 206.596 141.82 206.944 141.82 207.364C141.82 207.784 141.67 208.138 141.37 208.426C141.082 208.702 140.716 208.84 140.272 208.84ZM141.514 210.028V220H138.994V210.028H141.514ZM148.82 220.162C148.004 220.162 147.272 220.018 146.624 219.73C145.976 219.43 145.46 219.028 145.076 218.524C144.704 218.02 144.5 217.462 144.464 216.85H147.002C147.05 217.234 147.236 217.552 147.56 217.804C147.896 218.056 148.31 218.182 148.802 218.182C149.282 218.182 149.654 218.086 149.918 217.894C150.194 217.702 150.332 217.456 150.332 217.156C150.332 216.832 150.164 216.592 149.828 216.436C149.504 216.268 148.982 216.088 148.262 215.896C147.518 215.716 146.906 215.53 146.426 215.338C145.958 215.146 145.55 214.852 145.202 214.456C144.866 214.06 144.698 213.526 144.698 212.854C144.698 212.302 144.854 211.798 145.166 211.342C145.49 210.886 145.946 210.526 146.534 210.262C147.134 209.998 147.836 209.866 148.64 209.866C149.828 209.866 150.776 210.166 151.484 210.766C152.192 211.354 152.582 212.152 152.654 213.16H150.242C150.206 212.764 150.038 212.452 149.738 212.224C149.45 211.984 149.06 211.864 148.568 211.864C148.112 211.864 147.758 211.948 147.506 212.116C147.266 212.284 147.146 212.518 147.146 212.818C147.146 213.154 147.314 213.412 147.65 213.592C147.986 213.76 148.508 213.934 149.216 214.114C149.936 214.294 150.53 214.48 150.998 214.672C151.466 214.864 151.868 215.164 152.204 215.572C152.552 215.968 152.732 216.496 152.744 217.156C152.744 217.732 152.582 218.248 152.258 218.704C151.946 219.16 151.49 219.52 150.89 219.784C150.302 220.036 149.612 220.162 148.82 220.162ZM170.371 214.798C170.371 215.158 170.347 215.482 170.299 215.77H163.009C163.069 216.49 163.321 217.054 163.765 217.462C164.209 217.87 164.755 218.074 165.403 218.074C166.339 218.074 167.005 217.672 167.401 216.868H170.119C169.831 217.828 169.279 218.62 168.463 219.244C167.647 219.856 166.645 220.162 165.457 220.162C164.497 220.162 163.633 219.952 162.865 219.532C162.109 219.1 161.515 218.494 161.083 217.714C160.663 216.934 160.453 216.034 160.453 215.014C160.453 213.982 160.663 213.076 161.083 212.296C161.503 211.516 162.091 210.916 162.847 210.496C163.603 210.076 164.473 209.866 165.457 209.866C166.405 209.866 167.251 210.07 167.995 210.478C168.751 210.886 169.333 211.468 169.741 212.224C170.161 212.968 170.371 213.826 170.371 214.798ZM167.761 214.078C167.749 213.43 167.515 212.914 167.059 212.53C166.603 212.134 166.045 211.936 165.385 211.936C164.761 211.936 164.233 212.128 163.801 212.512C163.381 212.884 163.123 213.406 163.027 214.078H167.761ZM185.595 209.884C186.819 209.884 187.803 210.262 188.547 211.018C189.303 211.762 189.681 212.806 189.681 214.15V220H187.161V214.492C187.161 213.712 186.963 213.118 186.567 212.71C186.171 212.29 185.631 212.08 184.947 212.08C184.263 212.08 183.717 212.29 183.309 212.71C182.913 213.118 182.715 213.712 182.715 214.492V220H180.195V214.492C180.195 213.712 179.997 213.118 179.601 212.71C179.205 212.29 178.665 212.08 177.981 212.08C177.285 212.08 176.733 212.29 176.325 212.71C175.929 213.118 175.731 213.712 175.731 214.492V220H173.211V210.028H175.731V211.234C176.055 210.814 176.469 210.484 176.973 210.244C177.489 210.004 178.053 209.884 178.665 209.884C179.445 209.884 180.141 210.052 180.753 210.388C181.365 210.712 181.839 211.18 182.175 211.792C182.499 211.216 182.967 210.754 183.579 210.406C184.203 210.058 184.875 209.884 185.595 209.884ZM195.592 211.468C195.916 211.012 196.36 210.634 196.924 210.334C197.5 210.022 198.154 209.866 198.886 209.866C199.738 209.866 200.506 210.076 201.19 210.496C201.886 210.916 202.432 211.516 202.828 212.296C203.236 213.064 203.44 213.958 203.44 214.978C203.44 215.998 203.236 216.904 202.828 217.696C202.432 218.476 201.886 219.082 201.19 219.514C200.506 219.946 199.738 220.162 198.886 220.162C198.154 220.162 197.506 220.012 196.942 219.712C196.39 219.412 195.94 219.034 195.592 218.578V224.752H193.072V210.028H195.592V211.468ZM200.866 214.978C200.866 214.378 200.74 213.862 200.488 213.43C200.248 212.986 199.924 212.65 199.516 212.422C199.12 212.194 198.688 212.08 198.22 212.08C197.764 212.08 197.332 212.2 196.924 212.44C196.528 212.668 196.204 213.004 195.952 213.448C195.712 213.892 195.592 214.414 195.592 215.014C195.592 215.614 195.712 216.136 195.952 216.58C196.204 217.024 196.528 217.366 196.924 217.606C197.332 217.834 197.764 217.948 198.22 217.948C198.688 217.948 199.12 217.828 199.516 217.588C199.924 217.348 200.248 217.006 200.488 216.562C200.74 216.118 200.866 215.59 200.866 214.978ZM209.205 212.098V216.922C209.205 217.258 209.283 217.504 209.439 217.66C209.607 217.804 209.883 217.876 210.267 217.876H211.437V220H209.853C207.729 220 206.667 218.968 206.667 216.904V212.098H205.479V210.028H206.667V207.562H209.205V210.028H211.437V212.098H209.205ZM223.79 210.028L217.616 224.716H214.934L217.094 219.748L213.098 210.028H215.924L218.498 216.994L221.108 210.028H223.79ZM232.553 220.126C232.097 220.126 231.719 219.988 231.419 219.712C231.131 219.424 230.987 219.07 230.987 218.65C230.987 218.23 231.131 217.882 231.419 217.606C231.719 217.318 232.097 217.174 232.553 217.174C232.997 217.174 233.363 217.318 233.651 217.606C233.939 217.882 234.083 218.23 234.083 218.65C234.083 219.07 233.939 219.424 233.651 219.712C233.363 219.988 232.997 220.126 232.553 220.126ZM232.553 212.674C232.097 212.674 231.719 212.536 231.419 212.26C231.131 211.972 230.987 211.618 230.987 211.198C230.987 210.778 231.131 210.43 231.419 210.154C231.719 209.866 232.097 209.722 232.553 209.722C232.997 209.722 233.363 209.866 233.651 210.154C233.939 210.43 234.083 210.778 234.083 211.198C234.083 211.618 233.939 211.972 233.651 212.26C233.363 212.536 232.997 212.674 232.553 212.674ZM241.522 223.546C240.358 222.418 239.452 220.978 238.804 219.226C238.168 217.474 237.85 215.596 237.85 213.592C237.85 211.54 238.186 209.614 238.858 207.814C239.53 206.002 240.508 204.52 241.792 203.368H244.33V203.602C243.01 204.862 242.002 206.374 241.306 208.138C240.622 209.902 240.28 211.72 240.28 213.592C240.28 215.416 240.604 217.18 241.252 218.884C241.912 220.576 242.848 222.046 244.06 223.294V223.546H241.522Z" fill="black" style="fill:black;fill-opacity:1;"/>
<path d="M82.4473 240.218C82.4473 239.459 82.5964 238.786 82.8946 238.199C83.2018 237.611 83.613 237.16 84.128 236.843C84.6521 236.527 85.2349 236.369 85.8765 236.369C86.4367 236.369 86.9247 236.482 87.3404 236.708C87.7651 236.934 88.1039 237.218 88.3569 237.562V236.491H90.2681V244H88.3569V242.902C88.113 243.255 87.7741 243.548 87.3404 243.783C86.9157 244.009 86.4232 244.122 85.863 244.122C85.2304 244.122 84.6521 243.959 84.128 243.634C83.613 243.309 83.2018 242.852 82.8946 242.265C82.5964 241.669 82.4473 240.986 82.4473 240.218ZM88.3569 240.245C88.3569 239.785 88.2666 239.392 88.0858 239.066C87.9051 238.732 87.6611 238.479 87.3539 238.307C87.0467 238.127 86.7169 238.036 86.3645 238.036C86.012 238.036 85.6867 238.122 85.3886 238.294C85.0904 238.465 84.8464 238.718 84.6566 239.053C84.4759 239.378 84.3855 239.767 84.3855 240.218C84.3855 240.67 84.4759 241.068 84.6566 241.411C84.8464 241.745 85.0904 242.003 85.3886 242.184C85.6958 242.364 86.0211 242.455 86.3645 242.455C86.7169 242.455 87.0467 242.369 87.3539 242.197C87.6611 242.017 87.9051 241.764 88.0858 241.438C88.2666 241.104 88.3569 240.706 88.3569 240.245ZM92.3865 240.218C92.3865 239.459 92.5356 238.786 92.8337 238.199C93.141 237.611 93.5566 237.16 94.0807 236.843C94.6048 236.527 95.1877 236.369 95.8292 236.369C96.3172 236.369 96.7825 236.477 97.2253 236.694C97.6681 236.902 98.0205 237.182 98.2825 237.535V233.97H100.207V244H98.2825V242.889C98.0476 243.259 97.7178 243.557 97.2931 243.783C96.8684 244.009 96.3759 244.122 95.8157 244.122C95.1831 244.122 94.6048 243.959 94.0807 243.634C93.5566 243.309 93.141 242.852 92.8337 242.265C92.5356 241.669 92.3865 240.986 92.3865 240.218ZM98.2961 240.245C98.2961 239.785 98.2057 239.392 98.025 239.066C97.8443 238.732 97.6003 238.479 97.2931 238.307C96.9859 238.127 96.656 238.036 96.3036 238.036C95.9512 238.036 95.6259 238.122 95.3277 238.294C95.0295 238.465 94.7856 238.718 94.5958 239.053C94.4151 239.378 94.3247 239.767 94.3247 240.218C94.3247 240.67 94.4151 241.068 94.5958 241.411C94.7856 241.745 95.0295 242.003 95.3277 242.184C95.635 242.364 95.9603 242.455 96.3036 242.455C96.656 242.455 96.9859 242.369 97.2931 242.197C97.6003 242.017 97.8443 241.764 98.025 241.438C98.2057 241.104 98.2961 240.706 98.2961 240.245ZM102.326 240.218C102.326 239.459 102.475 238.786 102.773 238.199C103.08 237.611 103.496 237.16 104.02 236.843C104.544 236.527 105.127 236.369 105.768 236.369C106.256 236.369 106.722 236.477 107.164 236.694C107.607 236.902 107.96 237.182 108.222 237.535V233.97H110.146V244H108.222V242.889C107.987 243.259 107.657 243.557 107.232 243.783C106.808 244.009 106.315 244.122 105.755 244.122C105.122 244.122 104.544 243.959 104.02 243.634C103.496 243.309 103.08 242.852 102.773 242.265C102.475 241.669 102.326 240.986 102.326 240.218ZM108.235 240.245C108.235 239.785 108.145 239.392 107.964 239.066C107.783 238.732 107.539 238.479 107.232 238.307C106.925 238.127 106.595 238.036 106.243 238.036C105.89 238.036 105.565 238.122 105.267 238.294C104.969 238.465 104.725 238.718 104.535 239.053C104.354 239.378 104.264 239.767 104.264 240.218C104.264 240.67 104.354 241.068 104.535 241.411C104.725 241.745 104.969 242.003 105.267 242.184C105.574 242.364 105.899 242.455 106.243 242.455C106.595 242.455 106.925 242.369 107.232 242.197C107.539 242.017 107.783 241.764 107.964 241.438C108.145 241.104 108.235 240.706 108.235 240.245ZM126.061 236.383C126.982 236.383 127.723 236.667 128.284 237.236C128.853 237.797 129.138 238.583 129.138 239.595V244H127.24V239.852C127.24 239.265 127.091 238.818 126.793 238.511C126.495 238.194 126.088 238.036 125.573 238.036C125.058 238.036 124.647 238.194 124.339 238.511C124.041 238.818 123.892 239.265 123.892 239.852V244H121.995V239.852C121.995 239.265 121.845 238.818 121.547 238.511C121.249 238.194 120.842 238.036 120.327 238.036C119.803 238.036 119.388 238.194 119.08 238.511C118.782 238.818 118.633 239.265 118.633 239.852V244H116.735V236.491H118.633V237.399C118.877 237.083 119.189 236.834 119.568 236.654C119.957 236.473 120.382 236.383 120.842 236.383C121.43 236.383 121.954 236.509 122.415 236.762C122.876 237.006 123.232 237.358 123.485 237.819C123.729 237.386 124.082 237.038 124.543 236.776C125.013 236.514 125.519 236.383 126.061 236.383ZM135.026 244.122C134.303 244.122 133.652 243.964 133.074 243.648C132.496 243.322 132.039 242.866 131.705 242.279C131.38 241.691 131.217 241.014 131.217 240.245C131.217 239.477 131.384 238.8 131.718 238.212C132.062 237.625 132.527 237.173 133.114 236.857C133.702 236.532 134.357 236.369 135.08 236.369C135.803 236.369 136.458 236.532 137.045 236.857C137.633 237.173 138.093 237.625 138.428 238.212C138.771 238.8 138.943 239.477 138.943 240.245C138.943 241.014 138.767 241.691 138.414 242.279C138.071 242.866 137.601 243.322 137.005 243.648C136.417 243.964 135.758 244.122 135.026 244.122ZM135.026 242.468C135.369 242.468 135.69 242.387 135.988 242.224C136.295 242.053 136.539 241.8 136.72 241.465C136.901 241.131 136.991 240.724 136.991 240.245C136.991 239.532 136.801 238.985 136.422 238.605C136.051 238.217 135.595 238.023 135.053 238.023C134.511 238.023 134.054 238.217 133.684 238.605C133.322 238.985 133.142 239.532 133.142 240.245C133.142 240.959 133.318 241.511 133.67 241.899C134.032 242.279 134.483 242.468 135.026 242.468ZM142.985 237.657C143.229 237.259 143.546 236.947 143.934 236.721C144.332 236.495 144.784 236.383 145.29 236.383V238.375H144.788C144.192 238.375 143.74 238.515 143.433 238.795C143.134 239.075 142.985 239.563 142.985 240.259V244H141.088V236.491H142.985V237.657ZM154.301 240.083C154.301 240.354 154.283 240.598 154.247 240.815H148.757C148.803 241.357 148.992 241.782 149.327 242.089C149.661 242.396 150.072 242.55 150.56 242.55C151.265 242.55 151.766 242.247 152.065 241.642H154.111C153.895 242.364 153.479 242.961 152.864 243.431C152.25 243.892 151.495 244.122 150.601 244.122C149.878 244.122 149.227 243.964 148.649 243.648C148.08 243.322 147.632 242.866 147.307 242.279C146.991 241.691 146.833 241.014 146.833 240.245C146.833 239.468 146.991 238.786 147.307 238.199C147.623 237.611 148.066 237.16 148.635 236.843C149.205 236.527 149.86 236.369 150.601 236.369C151.315 236.369 151.952 236.523 152.512 236.83C153.081 237.137 153.52 237.575 153.827 238.145C154.143 238.705 154.301 239.351 154.301 240.083ZM152.336 239.541C152.327 239.053 152.151 238.664 151.807 238.375C151.464 238.077 151.044 237.928 150.547 237.928C150.077 237.928 149.679 238.072 149.354 238.361C149.038 238.642 148.843 239.035 148.771 239.541H152.336ZM162.32 237.575C162.564 237.232 162.898 236.947 163.323 236.721C163.756 236.486 164.249 236.369 164.8 236.369C165.442 236.369 166.02 236.527 166.535 236.843C167.059 237.16 167.47 237.611 167.768 238.199C168.076 238.777 168.229 239.45 168.229 240.218C168.229 240.986 168.076 241.669 167.768 242.265C167.47 242.852 167.059 243.309 166.535 243.634C166.02 243.959 165.442 244.122 164.8 244.122C164.249 244.122 163.761 244.009 163.336 243.783C162.92 243.557 162.582 243.273 162.32 242.929V247.578H160.422V236.491H162.32V237.575ZM166.291 240.218C166.291 239.767 166.196 239.378 166.006 239.053C165.826 238.718 165.582 238.465 165.274 238.294C164.976 238.122 164.651 238.036 164.298 238.036C163.955 238.036 163.63 238.127 163.323 238.307C163.024 238.479 162.78 238.732 162.591 239.066C162.41 239.401 162.32 239.794 162.32 240.245C162.32 240.697 162.41 241.09 162.591 241.425C162.78 241.759 163.024 242.017 163.323 242.197C163.63 242.369 163.955 242.455 164.298 242.455C164.651 242.455 164.976 242.364 165.274 242.184C165.582 242.003 165.826 241.745 166.006 241.411C166.196 241.077 166.291 240.679 166.291 240.218ZM174.59 236.383C175.159 236.383 175.665 236.509 176.108 236.762C176.551 237.006 176.894 237.372 177.138 237.86C177.391 238.339 177.518 238.917 177.518 239.595V244H175.62V239.852C175.62 239.256 175.471 238.8 175.173 238.483C174.875 238.158 174.468 237.995 173.953 237.995C173.429 237.995 173.013 238.158 172.706 238.483C172.408 238.8 172.259 239.256 172.259 239.852V244H170.361V233.97H172.259V237.426C172.503 237.101 172.828 236.848 173.235 236.667C173.641 236.477 174.093 236.383 174.59 236.383ZM183.41 244.122C182.687 244.122 182.036 243.964 181.458 243.648C180.879 243.322 180.423 242.866 180.089 242.279C179.764 241.691 179.601 241.014 179.601 240.245C179.601 239.477 179.768 238.8 180.102 238.212C180.446 237.625 180.911 237.173 181.498 236.857C182.086 236.532 182.741 236.369 183.464 236.369C184.187 236.369 184.842 236.532 185.429 236.857C186.017 237.173 186.477 237.625 186.812 238.212C187.155 238.8 187.327 239.477 187.327 240.245C187.327 241.014 187.151 241.691 186.798 242.279C186.455 242.866 185.985 243.322 185.389 243.648C184.801 243.964 184.142 244.122 183.41 244.122ZM183.41 242.468C183.753 242.468 184.074 242.387 184.372 242.224C184.679 242.053 184.923 241.8 185.104 241.465C185.285 241.131 185.375 240.724 185.375 240.245C185.375 239.532 185.185 238.985 184.806 238.605C184.435 238.217 183.979 238.023 183.437 238.023C182.895 238.023 182.438 238.217 182.068 238.605C181.706 238.985 181.526 239.532 181.526 240.245C181.526 240.959 181.702 241.511 182.054 241.899C182.416 242.279 182.867 242.468 183.41 242.468ZM191.681 238.05V241.682C191.681 241.935 191.74 242.12 191.857 242.238C191.984 242.346 192.192 242.401 192.481 242.401H193.362V244H192.169C190.57 244 189.77 243.223 189.77 241.669V238.05H188.875V236.491H189.77V234.634H191.681V236.491H193.362V238.05H191.681ZM198.814 244.122C198.091 244.122 197.441 243.964 196.862 243.648C196.284 243.322 195.828 242.866 195.493 242.279C195.168 241.691 195.005 241.014 195.005 240.245C195.005 239.477 195.172 238.8 195.507 238.212C195.85 237.625 196.316 237.173 196.903 236.857C197.49 236.532 198.145 236.369 198.868 236.369C199.591 236.369 200.246 236.532 200.834 236.857C201.421 237.173 201.882 237.625 202.216 238.212C202.559 238.8 202.731 239.477 202.731 240.245C202.731 241.014 202.555 241.691 202.203 242.279C201.859 242.866 201.389 243.322 200.793 243.648C200.206 243.964 199.546 244.122 198.814 244.122ZM198.814 242.468C199.157 242.468 199.478 242.387 199.776 242.224C200.084 242.053 200.328 241.8 200.508 241.465C200.689 241.131 200.779 240.724 200.779 240.245C200.779 239.532 200.59 238.985 200.21 238.605C199.84 238.217 199.383 238.023 198.841 238.023C198.299 238.023 197.843 238.217 197.472 238.605C197.111 238.985 196.93 239.532 196.93 240.245C196.93 240.959 197.106 241.511 197.459 241.899C197.82 242.279 198.272 242.468 198.814 242.468Z" fill="black" style="fill:black;fill-opacity:1;"/>
</svg>
