<svg width="306" height="455" viewBox="0 0 306 455" fill="none" xmlns="http://www.w3.org/2000/svg">
<rect width="306" height="455" fill="white" style="fill:white;fill-opacity:1;"/>
<rect width="306" height="455" fill="#4E5682" style="fill:#4E5682;fill:color(display-p3 0.3059 0.3373 0.5098);fill-opacity:1;"/>
<path d="M66.1018 174.002H70.2418V176H63.5818V163.436H66.1018V174.002ZM74.1216 164.84C73.6776 164.84 73.3056 164.702 73.0056 164.426C72.7176 164.138 72.5736 163.784 72.5736 163.364C72.5736 162.944 72.7176 162.596 73.0056 162.32C73.3056 162.032 73.6776 161.888 74.1216 161.888C74.5656 161.888 74.9316 162.032 75.2196 162.32C75.5196 162.596 75.6696 162.944 75.6696 163.364C75.6696 163.784 75.5196 164.138 75.2196 164.426C74.9316 164.702 74.5656 164.84 74.1216 164.84ZM75.3636 166.028V176H72.8436V166.028H75.3636ZM81.3733 167.486C81.6973 167.006 82.1413 166.616 82.7053 166.316C83.2813 166.016 83.9353 165.866 84.6673 165.866C85.5193 165.866 86.2873 166.076 86.9713 166.496C87.6673 166.916 88.2133 167.516 88.6093 168.296C89.0173 169.064 89.2213 169.958 89.2213 170.978C89.2213 171.998 89.0173 172.904 88.6093 173.696C88.2133 174.476 87.6673 175.082 86.9713 175.514C86.2873 175.946 85.5193 176.162 84.6673 176.162C83.9233 176.162 83.2693 176.018 82.7053 175.73C82.1533 175.43 81.7093 175.046 81.3733 174.578V176H78.8533V162.68H81.3733V167.486ZM86.6473 170.978C86.6473 170.378 86.5213 169.862 86.2693 169.43C86.0293 168.986 85.7053 168.65 85.2973 168.422C84.9013 168.194 84.4693 168.08 84.0013 168.08C83.5453 168.08 83.1133 168.2 82.7053 168.44C82.3093 168.668 81.9853 169.004 81.7333 169.448C81.4933 169.892 81.3733 170.414 81.3733 171.014C81.3733 171.614 81.4933 172.136 81.7333 172.58C81.9853 173.024 82.3093 173.366 82.7053 173.606C83.1133 173.834 83.5453 173.948 84.0013 173.948C84.4693 173.948 84.9013 173.828 85.2973 173.588C85.7053 173.348 86.0293 173.006 86.2693 172.562C86.5213 172.118 86.6473 171.59 86.6473 170.978ZM94.5725 167.576C94.8965 167.048 95.3165 166.634 95.8325 166.334C96.3605 166.034 96.9605 165.884 97.6325 165.884V168.53H96.9665C96.1745 168.53 95.5745 168.716 95.1665 169.088C94.7705 169.46 94.5725 170.108 94.5725 171.032V176H92.0525V166.028H94.5725V167.576ZM99.6819 170.978C99.6819 169.97 99.8799 169.076 100.276 168.296C100.684 167.516 101.23 166.916 101.914 166.496C102.61 166.076 103.384 165.866 104.236 165.866C104.98 165.866 105.628 166.016 106.18 166.316C106.744 166.616 107.194 166.994 107.53 167.45V166.028H110.068V176H107.53V174.542C107.206 175.01 106.756 175.4 106.18 175.712C105.616 176.012 104.962 176.162 104.218 176.162C103.378 176.162 102.61 175.946 101.914 175.514C101.23 175.082 100.684 174.476 100.276 173.696C99.8799 172.904 99.6819 171.998 99.6819 170.978ZM107.53 171.014C107.53 170.402 107.41 169.88 107.17 169.448C106.93 169.004 106.606 168.668 106.198 168.44C105.79 168.2 105.352 168.08 104.884 168.08C104.416 168.08 103.984 168.194 103.588 168.422C103.192 168.65 102.868 168.986 102.616 169.43C102.376 169.862 102.256 170.378 102.256 170.978C102.256 171.578 102.376 172.106 102.616 172.562C102.868 173.006 103.192 173.348 103.588 173.588C103.996 173.828 104.428 173.948 104.884 173.948C105.352 173.948 105.79 173.834 106.198 173.606C106.606 173.366 106.93 173.03 107.17 172.598C107.41 172.154 107.53 171.626 107.53 171.014ZM116.049 167.576C116.373 167.048 116.793 166.634 117.309 166.334C117.837 166.034 118.437 165.884 119.109 165.884V168.53H118.443C117.651 168.53 117.051 168.716 116.643 169.088C116.247 169.46 116.049 170.108 116.049 171.032V176H113.529V166.028H116.049V167.576ZM131.346 166.028L125.172 180.716H122.49L124.65 175.748L120.654 166.028H123.48L126.054 172.994L128.664 166.028H131.346ZM140.272 164.84C139.828 164.84 139.456 164.702 139.156 164.426C138.868 164.138 138.724 163.784 138.724 163.364C138.724 162.944 138.868 162.596 139.156 162.32C139.456 162.032 139.828 161.888 140.272 161.888C140.716 161.888 141.082 162.032 141.37 162.32C141.67 162.596 141.82 162.944 141.82 163.364C141.82 163.784 141.67 164.138 141.37 164.426C141.082 164.702 140.716 164.84 140.272 164.84ZM141.514 166.028V176H138.994V166.028H141.514ZM148.82 176.162C148.004 176.162 147.272 176.018 146.624 175.73C145.976 175.43 145.46 175.028 145.076 174.524C144.704 174.02 144.5 173.462 144.464 172.85H147.002C147.05 173.234 147.236 173.552 147.56 173.804C147.896 174.056 148.31 174.182 148.802 174.182C149.282 174.182 149.654 174.086 149.918 173.894C150.194 173.702 150.332 173.456 150.332 173.156C150.332 172.832 150.164 172.592 149.828 172.436C149.504 172.268 148.982 172.088 148.262 171.896C147.518 171.716 146.906 171.53 146.426 171.338C145.958 171.146 145.55 170.852 145.202 170.456C144.866 170.06 144.698 169.526 144.698 168.854C144.698 168.302 144.854 167.798 145.166 167.342C145.49 166.886 145.946 166.526 146.534 166.262C147.134 165.998 147.836 165.866 148.64 165.866C149.828 165.866 150.776 166.166 151.484 166.766C152.192 167.354 152.582 168.152 152.654 169.16H150.242C150.206 168.764 150.038 168.452 149.738 168.224C149.45 167.984 149.06 167.864 148.568 167.864C148.112 167.864 147.758 167.948 147.506 168.116C147.266 168.284 147.146 168.518 147.146 168.818C147.146 169.154 147.314 169.412 147.65 169.592C147.986 169.76 148.508 169.934 149.216 170.114C149.936 170.294 150.53 170.48 150.998 170.672C151.466 170.864 151.868 171.164 152.204 171.572C152.552 171.968 152.732 172.496 152.744 173.156C152.744 173.732 152.582 174.248 152.258 174.704C151.946 175.16 151.49 175.52 150.89 175.784C150.302 176.036 149.612 176.162 148.82 176.162ZM170.371 170.798C170.371 171.158 170.347 171.482 170.299 171.77H163.009C163.069 172.49 163.321 173.054 163.765 173.462C164.209 173.87 164.755 174.074 165.403 174.074C166.339 174.074 167.005 173.672 167.401 172.868H170.119C169.831 173.828 169.279 174.62 168.463 175.244C167.647 175.856 166.645 176.162 165.457 176.162C164.497 176.162 163.633 175.952 162.865 175.532C162.109 175.1 161.515 174.494 161.083 173.714C160.663 172.934 160.453 172.034 160.453 171.014C160.453 169.982 160.663 169.076 161.083 168.296C161.503 167.516 162.091 166.916 162.847 166.496C163.603 166.076 164.473 165.866 165.457 165.866C166.405 165.866 167.251 166.07 167.995 166.478C168.751 166.886 169.333 167.468 169.741 168.224C170.161 168.968 170.371 169.826 170.371 170.798ZM167.761 170.078C167.749 169.43 167.515 168.914 167.059 168.53C166.603 168.134 166.045 167.936 165.385 167.936C164.761 167.936 164.233 168.128 163.801 168.512C163.381 168.884 163.123 169.406 163.027 170.078H167.761ZM185.595 165.884C186.819 165.884 187.803 166.262 188.547 167.018C189.303 167.762 189.681 168.806 189.681 170.15V176H187.161V170.492C187.161 169.712 186.963 169.118 186.567 168.71C186.171 168.29 185.631 168.08 184.947 168.08C184.263 168.08 183.717 168.29 183.309 168.71C182.913 169.118 182.715 169.712 182.715 170.492V176H180.195V170.492C180.195 169.712 179.997 169.118 179.601 168.71C179.205 168.29 178.665 168.08 177.981 168.08C177.285 168.08 176.733 168.29 176.325 168.71C175.929 169.118 175.731 169.712 175.731 170.492V176H173.211V166.028H175.731V167.234C176.055 166.814 176.469 166.484 176.973 166.244C177.489 166.004 178.053 165.884 178.665 165.884C179.445 165.884 180.141 166.052 180.753 166.388C181.365 166.712 181.839 167.18 182.175 167.792C182.499 167.216 182.967 166.754 183.579 166.406C184.203 166.058 184.875 165.884 185.595 165.884ZM195.592 167.468C195.916 167.012 196.36 166.634 196.924 166.334C197.5 166.022 198.154 165.866 198.886 165.866C199.738 165.866 200.506 166.076 201.19 166.496C201.886 166.916 202.432 167.516 202.828 168.296C203.236 169.064 203.44 169.958 203.44 170.978C203.44 171.998 203.236 172.904 202.828 173.696C202.432 174.476 201.886 175.082 201.19 175.514C200.506 175.946 199.738 176.162 198.886 176.162C198.154 176.162 197.506 176.012 196.942 175.712C196.39 175.412 195.94 175.034 195.592 174.578V180.752H193.072V166.028H195.592V167.468ZM200.866 170.978C200.866 170.378 200.74 169.862 200.488 169.43C200.248 168.986 199.924 168.65 199.516 168.422C199.12 168.194 198.688 168.08 198.22 168.08C197.764 168.08 197.332 168.2 196.924 168.44C196.528 168.668 196.204 169.004 195.952 169.448C195.712 169.892 195.592 170.414 195.592 171.014C195.592 171.614 195.712 172.136 195.952 172.58C196.204 173.024 196.528 173.366 196.924 173.606C197.332 173.834 197.764 173.948 198.22 173.948C198.688 173.948 199.12 173.828 199.516 173.588C199.924 173.348 200.248 173.006 200.488 172.562C200.74 172.118 200.866 171.59 200.866 170.978ZM209.205 168.098V172.922C209.205 173.258 209.283 173.504 209.439 173.66C209.607 173.804 209.883 173.876 210.267 173.876H211.437V176H209.853C207.729 176 206.667 174.968 206.667 172.904V168.098H205.479V166.028H206.667V163.562H209.205V166.028H211.437V168.098H209.205ZM223.79 166.028L217.616 180.716H214.934L217.094 175.748L213.098 166.028H215.924L218.498 172.994L221.108 166.028H223.79ZM232.553 176.126C232.097 176.126 231.719 175.988 231.419 175.712C231.131 175.424 230.987 175.07 230.987 174.65C230.987 174.23 231.131 173.882 231.419 173.606C231.719 173.318 232.097 173.174 232.553 173.174C232.997 173.174 233.363 173.318 233.651 173.606C233.939 173.882 234.083 174.23 234.083 174.65C234.083 175.07 233.939 175.424 233.651 175.712C233.363 175.988 232.997 176.126 232.553 176.126ZM232.553 168.674C232.097 168.674 231.719 168.536 231.419 168.26C231.131 167.972 230.987 167.618 230.987 167.198C230.987 166.778 231.131 166.43 231.419 166.154C231.719 165.866 232.097 165.722 232.553 165.722C232.997 165.722 233.363 165.866 233.651 166.154C233.939 166.43 234.083 166.778 234.083 167.198C234.083 167.618 233.939 167.972 233.651 168.26C233.363 168.536 232.997 168.674 232.553 168.674ZM241.522 179.546C240.358 178.418 239.452 176.978 238.804 175.226C238.168 173.474 237.85 171.596 237.85 169.592C237.85 167.54 238.186 165.614 238.858 163.814C239.53 162.002 240.508 160.52 241.792 159.368H244.33V159.602C243.01 160.862 242.002 162.374 241.306 164.138C240.622 165.902 240.28 167.72 240.28 169.592C240.28 171.416 240.604 173.18 241.252 174.884C241.912 176.576 242.848 178.046 244.06 179.294V179.546H241.522Z" fill="#A0A8D4" style="fill:#A0A8D4;fill:color(display-p3 0.6275 0.6588 0.8314);fill-opacity:1;"/>
<path d="M88.9073 200.218C88.9073 199.459 89.0564 198.786 89.3546 198.199C89.6619 197.611 90.073 197.16 90.5881 196.843C91.1122 196.527 91.695 196.369 92.3366 196.369C92.8968 196.369 93.3848 196.482 93.8004 196.708C94.2251 196.934 94.564 197.218 94.817 197.562V196.491H96.7281V204H94.817V202.902C94.573 203.255 94.2341 203.548 93.8004 203.783C93.3757 204.009 92.8832 204.122 92.323 204.122C91.6905 204.122 91.1122 203.959 90.5881 203.634C90.073 203.309 89.6619 202.852 89.3546 202.265C89.0564 201.669 88.9073 200.986 88.9073 200.218ZM94.817 200.245C94.817 199.785 94.7266 199.392 94.5459 199.066C94.3652 198.732 94.1212 198.479 93.814 198.307C93.5067 198.127 93.1769 198.036 92.8245 198.036C92.4721 198.036 92.1468 198.122 91.8486 198.294C91.5504 198.465 91.3064 198.718 91.1167 199.053C90.936 199.378 90.8456 199.767 90.8456 200.218C90.8456 200.67 90.936 201.068 91.1167 201.411C91.3064 201.745 91.5504 202.003 91.8486 202.184C92.1558 202.364 92.4811 202.455 92.8245 202.455C93.1769 202.455 93.5067 202.369 93.814 202.197C94.1212 202.017 94.3652 201.764 94.5459 201.438C94.7266 201.104 94.817 200.706 94.817 200.245ZM98.8465 200.218C98.8465 199.459 98.9956 198.786 99.2938 198.199C99.601 197.611 100.017 197.16 100.541 196.843C101.065 196.527 101.648 196.369 102.289 196.369C102.777 196.369 103.243 196.477 103.685 196.694C104.128 196.902 104.481 197.182 104.743 197.535V193.97H106.667V204H104.743V202.889C104.508 203.259 104.178 203.557 103.753 203.783C103.328 204.009 102.836 204.122 102.276 204.122C101.643 204.122 101.065 203.959 100.541 203.634C100.017 203.309 99.601 202.852 99.2938 202.265C98.9956 201.669 98.8465 200.986 98.8465 200.218ZM104.756 200.245C104.756 199.785 104.666 199.392 104.485 199.066C104.304 198.732 104.06 198.479 103.753 198.307C103.446 198.127 103.116 198.036 102.764 198.036C102.411 198.036 102.086 198.122 101.788 198.294C101.49 198.465 101.246 198.718 101.056 199.053C100.875 199.378 100.785 199.767 100.785 200.218C100.785 200.67 100.875 201.068 101.056 201.411C101.246 201.745 101.49 202.003 101.788 202.184C102.095 202.364 102.42 202.455 102.764 202.455C103.116 202.455 103.446 202.369 103.753 202.197C104.06 202.017 104.304 201.764 104.485 201.438C104.666 201.104 104.756 200.706 104.756 200.245ZM108.786 200.218C108.786 199.459 108.935 198.786 109.233 198.199C109.54 197.611 109.956 197.16 110.48 196.843C111.004 196.527 111.587 196.369 112.228 196.369C112.716 196.369 113.182 196.477 113.625 196.694C114.067 196.902 114.42 197.182 114.682 197.535V193.97H116.606V204H114.682V202.889C114.447 203.259 114.117 203.557 113.692 203.783C113.268 204.009 112.775 204.122 112.215 204.122C111.582 204.122 111.004 203.959 110.48 203.634C109.956 203.309 109.54 202.852 109.233 202.265C108.935 201.669 108.786 200.986 108.786 200.218ZM114.695 200.245C114.695 199.785 114.605 199.392 114.424 199.066C114.244 198.732 114 198.479 113.692 198.307C113.385 198.127 113.055 198.036 112.703 198.036C112.35 198.036 112.025 198.122 111.727 198.294C111.429 198.465 111.185 198.718 110.995 199.053C110.814 199.378 110.724 199.767 110.724 200.218C110.724 200.67 110.814 201.068 110.995 201.411C111.185 201.745 111.429 202.003 111.727 202.184C112.034 202.364 112.359 202.455 112.703 202.455C113.055 202.455 113.385 202.369 113.692 202.197C114 202.017 114.244 201.764 114.424 201.438C114.605 201.104 114.695 200.706 114.695 200.245ZM132.521 196.383C133.443 196.383 134.183 196.667 134.744 197.236C135.313 197.797 135.598 198.583 135.598 199.595V204H133.7V199.852C133.7 199.265 133.551 198.818 133.253 198.511C132.955 198.194 132.548 198.036 132.033 198.036C131.518 198.036 131.107 198.194 130.799 198.511C130.501 198.818 130.352 199.265 130.352 199.852V204H128.455V199.852C128.455 199.265 128.305 198.818 128.007 198.511C127.709 198.194 127.302 198.036 126.787 198.036C126.263 198.036 125.848 198.194 125.54 198.511C125.242 198.818 125.093 199.265 125.093 199.852V204H123.196V196.491H125.093V197.399C125.337 197.083 125.649 196.834 126.028 196.654C126.417 196.473 126.842 196.383 127.302 196.383C127.89 196.383 128.414 196.509 128.875 196.762C129.336 197.006 129.693 197.358 129.946 197.819C130.19 197.386 130.542 197.038 131.003 196.776C131.473 196.514 131.979 196.383 132.521 196.383ZM141.486 204.122C140.763 204.122 140.112 203.964 139.534 203.648C138.956 203.322 138.499 202.866 138.165 202.279C137.84 201.691 137.677 201.014 137.677 200.245C137.677 199.477 137.844 198.8 138.178 198.212C138.522 197.625 138.987 197.173 139.575 196.857C140.162 196.532 140.817 196.369 141.54 196.369C142.263 196.369 142.918 196.532 143.505 196.857C144.093 197.173 144.553 197.625 144.888 198.212C145.231 198.8 145.403 199.477 145.403 200.245C145.403 201.014 145.227 201.691 144.874 202.279C144.531 202.866 144.061 203.322 143.465 203.648C142.877 203.964 142.218 204.122 141.486 204.122ZM141.486 202.468C141.829 202.468 142.15 202.387 142.448 202.224C142.755 202.053 142.999 201.8 143.18 201.465C143.361 201.131 143.451 200.724 143.451 200.245C143.451 199.532 143.261 198.985 142.882 198.605C142.511 198.217 142.055 198.023 141.513 198.023C140.971 198.023 140.514 198.217 140.144 198.605C139.782 198.985 139.602 199.532 139.602 200.245C139.602 200.959 139.778 201.511 140.13 201.899C140.492 202.279 140.944 202.468 141.486 202.468ZM149.445 197.657C149.689 197.259 150.006 196.947 150.394 196.721C150.792 196.495 151.244 196.383 151.75 196.383V198.375H151.248C150.652 198.375 150.2 198.515 149.893 198.795C149.595 199.075 149.445 199.563 149.445 200.259V204H147.548V196.491H149.445V197.657ZM160.761 200.083C160.761 200.354 160.743 200.598 160.707 200.815H155.218C155.263 201.357 155.452 201.782 155.787 202.089C156.121 202.396 156.532 202.55 157.02 202.55C157.725 202.55 158.227 202.247 158.525 201.642H160.571C160.355 202.364 159.939 202.961 159.324 203.431C158.71 203.892 157.955 204.122 157.061 204.122C156.338 204.122 155.687 203.964 155.109 203.648C154.54 203.322 154.093 202.866 153.767 202.279C153.451 201.691 153.293 201.014 153.293 200.245C153.293 199.468 153.451 198.786 153.767 198.199C154.083 197.611 154.526 197.16 155.096 196.843C155.665 196.527 156.32 196.369 157.061 196.369C157.775 196.369 158.412 196.523 158.972 196.83C159.541 197.137 159.98 197.575 160.287 198.145C160.603 198.705 160.761 199.351 160.761 200.083ZM158.796 199.541C158.787 199.053 158.611 198.664 158.267 198.375C157.924 198.077 157.504 197.928 157.007 197.928C156.537 197.928 156.139 198.072 155.814 198.361C155.498 198.642 155.303 199.035 155.231 199.541H158.796ZM168.78 197.575C169.024 197.232 169.358 196.947 169.783 196.721C170.216 196.486 170.709 196.369 171.26 196.369C171.902 196.369 172.48 196.527 172.995 196.843C173.519 197.16 173.93 197.611 174.228 198.199C174.536 198.777 174.689 199.45 174.689 200.218C174.689 200.986 174.536 201.669 174.228 202.265C173.93 202.852 173.519 203.309 172.995 203.634C172.48 203.959 171.902 204.122 171.26 204.122C170.709 204.122 170.221 204.009 169.796 203.783C169.38 203.557 169.042 203.273 168.78 202.929V207.578H166.882V196.491H168.78V197.575ZM172.751 200.218C172.751 199.767 172.656 199.378 172.466 199.053C172.286 198.718 172.042 198.465 171.734 198.294C171.436 198.122 171.111 198.036 170.759 198.036C170.415 198.036 170.09 198.127 169.783 198.307C169.484 198.479 169.24 198.732 169.051 199.066C168.87 199.401 168.78 199.794 168.78 200.245C168.78 200.697 168.87 201.09 169.051 201.425C169.24 201.759 169.484 202.017 169.783 202.197C170.09 202.369 170.415 202.455 170.759 202.455C171.111 202.455 171.436 202.364 171.734 202.184C172.042 202.003 172.286 201.745 172.466 201.411C172.656 201.077 172.751 200.679 172.751 200.218ZM181.05 196.383C181.619 196.383 182.125 196.509 182.568 196.762C183.011 197.006 183.354 197.372 183.598 197.86C183.851 198.339 183.978 198.917 183.978 199.595V204H182.08V199.852C182.08 199.256 181.931 198.8 181.633 198.483C181.335 198.158 180.928 197.995 180.413 197.995C179.889 197.995 179.473 198.158 179.166 198.483C178.868 198.8 178.719 199.256 178.719 199.852V204H176.821V193.97H178.719V197.426C178.963 197.101 179.288 196.848 179.695 196.667C180.101 196.477 180.553 196.383 181.05 196.383ZM189.87 204.122C189.147 204.122 188.496 203.964 187.918 203.648C187.34 203.322 186.883 202.866 186.549 202.279C186.224 201.691 186.061 201.014 186.061 200.245C186.061 199.477 186.228 198.8 186.562 198.212C186.906 197.625 187.371 197.173 187.959 196.857C188.546 196.532 189.201 196.369 189.924 196.369C190.647 196.369 191.302 196.532 191.889 196.857C192.477 197.173 192.937 197.625 193.272 198.212C193.615 198.8 193.787 199.477 193.787 200.245C193.787 201.014 193.611 201.691 193.258 202.279C192.915 202.866 192.445 203.322 191.849 203.648C191.261 203.964 190.602 204.122 189.87 204.122ZM189.87 202.468C190.213 202.468 190.534 202.387 190.832 202.224C191.139 202.053 191.383 201.8 191.564 201.465C191.745 201.131 191.835 200.724 191.835 200.245C191.835 199.532 191.645 198.985 191.266 198.605C190.895 198.217 190.439 198.023 189.897 198.023C189.355 198.023 188.898 198.217 188.528 198.605C188.166 198.985 187.986 199.532 187.986 200.245C187.986 200.959 188.162 201.511 188.514 201.899C188.876 202.279 189.327 202.468 189.87 202.468ZM198.141 198.05V201.682C198.141 201.935 198.2 202.12 198.317 202.238C198.444 202.346 198.652 202.401 198.941 202.401H199.822V204H198.629C197.03 204 196.23 203.223 196.23 201.669V198.05H195.335V196.491H196.23V194.634H198.141V196.491H199.822V198.05H198.141ZM205.274 204.122C204.551 204.122 203.901 203.964 203.322 203.648C202.744 203.322 202.288 202.866 201.953 202.279C201.628 201.691 201.465 201.014 201.465 200.245C201.465 199.477 201.632 198.8 201.967 198.212C202.31 197.625 202.776 197.173 203.363 196.857C203.95 196.532 204.605 196.369 205.328 196.369C206.051 196.369 206.706 196.532 207.294 196.857C207.881 197.173 208.342 197.625 208.676 198.212C209.02 198.8 209.191 199.477 209.191 200.245C209.191 201.014 209.015 201.691 208.663 202.279C208.319 202.866 207.849 203.322 207.253 203.648C206.666 203.964 206.006 204.122 205.274 204.122ZM205.274 202.468C205.617 202.468 205.938 202.387 206.236 202.224C206.544 202.053 206.788 201.8 206.968 201.465C207.149 201.131 207.239 200.724 207.239 200.245C207.239 199.532 207.05 198.985 206.67 198.605C206.3 198.217 205.843 198.023 205.301 198.023C204.759 198.023 204.303 198.217 203.932 198.605C203.571 198.985 203.39 199.532 203.39 200.245C203.39 200.959 203.566 201.511 203.919 201.899C204.28 202.279 204.732 202.468 205.274 202.468ZM214.21 204.122C213.595 204.122 213.044 204.014 212.556 203.797C212.068 203.571 211.68 203.268 211.39 202.889C211.11 202.509 210.957 202.089 210.93 201.628H212.841C212.877 201.917 213.017 202.157 213.261 202.346C213.514 202.536 213.826 202.631 214.196 202.631C214.558 202.631 214.838 202.559 215.036 202.414C215.244 202.27 215.348 202.084 215.348 201.858C215.348 201.614 215.222 201.434 214.969 201.316C214.725 201.19 214.332 201.054 213.79 200.91C213.229 200.774 212.768 200.634 212.407 200.489C212.055 200.345 211.747 200.123 211.485 199.825C211.232 199.527 211.106 199.125 211.106 198.619C211.106 198.203 211.223 197.824 211.458 197.48C211.702 197.137 212.046 196.866 212.488 196.667C212.94 196.468 213.469 196.369 214.074 196.369C214.969 196.369 215.683 196.595 216.216 197.047C216.749 197.489 217.043 198.09 217.097 198.849H215.28C215.253 198.551 215.127 198.316 214.901 198.145C214.684 197.964 214.39 197.873 214.02 197.873C213.677 197.873 213.41 197.937 213.22 198.063C213.04 198.19 212.949 198.366 212.949 198.592C212.949 198.845 213.076 199.039 213.329 199.175C213.582 199.301 213.975 199.432 214.508 199.568C215.05 199.703 215.497 199.843 215.85 199.988C216.202 200.133 216.505 200.358 216.758 200.666C217.02 200.964 217.155 201.361 217.165 201.858C217.165 202.292 217.043 202.681 216.799 203.024C216.564 203.367 216.22 203.639 215.768 203.837C215.326 204.027 214.806 204.122 214.21 204.122ZM96.7403 224.122C96.0174 224.122 95.3668 223.964 94.7885 223.648C94.2102 223.322 93.7539 222.866 93.4195 222.279C93.0942 221.691 92.9316 221.014 92.9316 220.245C92.9316 219.477 93.0987 218.8 93.4331 218.212C93.7764 217.625 94.2418 217.173 94.8292 216.857C95.4165 216.532 96.0716 216.369 96.7945 216.369C97.5174 216.369 98.1725 216.532 98.7599 216.857C99.3472 217.173 99.8081 217.625 100.142 218.212C100.486 218.8 100.657 219.477 100.657 220.245C100.657 221.014 100.481 221.691 100.129 222.279C99.7855 222.866 99.3156 223.322 98.7192 223.648C98.1319 223.964 97.4722 224.122 96.7403 224.122ZM96.7403 222.468C97.0837 222.468 97.4045 222.387 97.7027 222.224C98.0099 222.053 98.2539 221.8 98.4346 221.465C98.6153 221.131 98.7057 220.724 98.7057 220.245C98.7057 219.532 98.5159 218.985 98.1364 218.605C97.7659 218.217 97.3096 218.023 96.7674 218.023C96.2252 218.023 95.7689 218.217 95.3984 218.605C95.037 218.985 94.8563 219.532 94.8563 220.245C94.8563 220.959 95.0325 221.511 95.3849 221.899C95.7463 222.279 96.1981 222.468 96.7403 222.468ZM104.7 217.657C104.944 217.259 105.26 216.947 105.649 216.721C106.046 216.495 106.498 216.383 107.004 216.383V218.375H106.503C105.906 218.375 105.455 218.515 105.147 218.795C104.849 219.075 104.7 219.563 104.7 220.259V224H102.802V216.491H104.7V217.657ZM112.53 220.245C112.53 219.468 112.688 218.791 113.005 218.212C113.321 217.625 113.759 217.173 114.319 216.857C114.88 216.532 115.521 216.369 116.244 216.369C117.175 216.369 117.943 216.604 118.548 217.074C119.163 217.535 119.574 218.185 119.782 219.026H117.735C117.627 218.7 117.441 218.447 117.179 218.267C116.926 218.077 116.61 217.982 116.23 217.982C115.688 217.982 115.259 218.181 114.943 218.578C114.627 218.967 114.468 219.523 114.468 220.245C114.468 220.959 114.627 221.515 114.943 221.913C115.259 222.301 115.688 222.495 116.23 222.495C116.999 222.495 117.5 222.152 117.735 221.465H119.782C119.574 222.279 119.163 222.925 118.548 223.404C117.934 223.883 117.166 224.122 116.244 224.122C115.521 224.122 114.88 223.964 114.319 223.648C113.759 223.322 113.321 222.87 113.005 222.292C112.688 221.705 112.53 221.023 112.53 220.245ZM126.154 216.383C126.723 216.383 127.229 216.509 127.672 216.762C128.115 217.006 128.458 217.372 128.702 217.86C128.955 218.339 129.081 218.917 129.081 219.595V224H127.184V219.852C127.184 219.256 127.035 218.8 126.737 218.483C126.438 218.158 126.032 217.995 125.517 217.995C124.993 217.995 124.577 218.158 124.27 218.483C123.972 218.8 123.822 219.256 123.822 219.852V224H121.925V213.97H123.822V217.426C124.066 217.101 124.392 216.848 124.798 216.667C125.205 216.477 125.657 216.383 126.154 216.383ZM138.619 220.083C138.619 220.354 138.601 220.598 138.565 220.815H133.076C133.121 221.357 133.311 221.782 133.645 222.089C133.979 222.396 134.39 222.55 134.878 222.55C135.583 222.55 136.085 222.247 136.383 221.642H138.43C138.213 222.364 137.797 222.961 137.183 223.431C136.568 223.892 135.814 224.122 134.919 224.122C134.196 224.122 133.546 223.964 132.967 223.648C132.398 223.322 131.951 222.866 131.625 222.279C131.309 221.691 131.151 221.014 131.151 220.245C131.151 219.468 131.309 218.786 131.625 218.199C131.942 217.611 132.384 217.16 132.954 216.843C133.523 216.527 134.178 216.369 134.919 216.369C135.633 216.369 136.27 216.523 136.83 216.83C137.4 217.137 137.838 217.575 138.145 218.145C138.461 218.705 138.619 219.351 138.619 220.083ZM136.654 219.541C136.645 219.053 136.469 218.664 136.125 218.375C135.782 218.077 135.362 217.928 134.865 217.928C134.395 217.928 133.997 218.072 133.672 218.361C133.356 218.642 133.162 219.035 133.089 219.541H136.654ZM140.27 220.245C140.27 219.468 140.428 218.791 140.744 218.212C141.06 217.625 141.498 217.173 142.059 216.857C142.619 216.532 143.26 216.369 143.983 216.369C144.914 216.369 145.682 216.604 146.288 217.074C146.902 217.535 147.313 218.185 147.521 219.026H145.474C145.366 218.7 145.181 218.447 144.919 218.267C144.666 218.077 144.349 217.982 143.97 217.982C143.428 217.982 142.998 218.181 142.682 218.578C142.366 218.967 142.208 219.523 142.208 220.245C142.208 220.959 142.366 221.515 142.682 221.913C142.998 222.301 143.428 222.495 143.97 222.495C144.738 222.495 145.239 222.152 145.474 221.465H147.521C147.313 222.279 146.902 222.925 146.288 223.404C145.673 223.883 144.905 224.122 143.983 224.122C143.26 224.122 142.619 223.964 142.059 223.648C141.498 223.322 141.06 222.87 140.744 222.292C140.428 221.705 140.27 221.023 140.27 220.245ZM154.11 224L151.562 220.801V224H149.664V213.97H151.562V219.676L154.083 216.491H156.55L153.243 220.259L156.577 224H154.11ZM161.827 220.218C161.827 219.459 161.977 218.786 162.275 218.199C162.582 217.611 162.993 217.16 163.508 216.843C164.032 216.527 164.615 216.369 165.257 216.369C165.817 216.369 166.305 216.482 166.721 216.708C167.145 216.934 167.484 217.218 167.737 217.562V216.491H169.648V224H167.737V222.902C167.493 223.255 167.154 223.548 166.721 223.783C166.296 224.009 165.803 224.122 165.243 224.122C164.611 224.122 164.032 223.959 163.508 223.634C162.993 223.309 162.582 222.852 162.275 222.265C161.977 221.669 161.827 220.986 161.827 220.218ZM167.737 220.245C167.737 219.785 167.647 219.392 167.466 219.066C167.285 218.732 167.041 218.479 166.734 218.307C166.427 218.127 166.097 218.036 165.745 218.036C165.392 218.036 165.067 218.122 164.769 218.294C164.471 218.465 164.227 218.718 164.037 219.053C163.856 219.378 163.766 219.767 163.766 220.218C163.766 220.67 163.856 221.068 164.037 221.411C164.227 221.745 164.471 222.003 164.769 222.184C165.076 222.364 165.401 222.455 165.745 222.455C166.097 222.455 166.427 222.369 166.734 222.197C167.041 222.017 167.285 221.764 167.466 221.438C167.647 221.104 167.737 220.706 167.737 220.245ZM171.767 220.245C171.767 219.468 171.925 218.791 172.241 218.212C172.557 217.625 172.996 217.173 173.556 216.857C174.116 216.532 174.758 216.369 175.48 216.369C176.411 216.369 177.179 216.604 177.785 217.074C178.399 217.535 178.81 218.185 179.018 219.026H176.971C176.863 218.7 176.678 218.447 176.416 218.267C176.163 218.077 175.846 217.982 175.467 217.982C174.925 217.982 174.496 218.181 174.179 218.578C173.863 218.967 173.705 219.523 173.705 220.245C173.705 220.959 173.863 221.515 174.179 221.913C174.496 222.301 174.925 222.495 175.467 222.495C176.235 222.495 176.736 222.152 176.971 221.465H179.018C178.81 222.279 178.399 222.925 177.785 223.404C177.17 223.883 176.402 224.122 175.48 224.122C174.758 224.122 174.116 223.964 173.556 223.648C172.996 223.322 172.557 222.87 172.241 222.292C171.925 221.705 171.767 221.023 171.767 220.245ZM180.673 220.245C180.673 219.468 180.831 218.791 181.148 218.212C181.464 217.625 181.902 217.173 182.462 216.857C183.023 216.532 183.664 216.369 184.387 216.369C185.318 216.369 186.086 216.604 186.691 217.074C187.306 217.535 187.717 218.185 187.925 219.026H185.878C185.77 218.7 185.584 218.447 185.322 218.267C185.069 218.077 184.753 217.982 184.374 217.982C183.831 217.982 183.402 218.181 183.086 218.578C182.77 218.967 182.612 219.523 182.612 220.245C182.612 220.959 182.77 221.515 183.086 221.913C183.402 222.301 183.831 222.495 184.374 222.495C185.142 222.495 185.643 222.152 185.878 221.465H187.925C187.717 222.279 187.306 222.925 186.691 223.404C186.077 223.883 185.309 224.122 184.387 224.122C183.664 224.122 183.023 223.964 182.462 223.648C181.902 223.322 181.464 222.87 181.148 222.292C180.831 221.705 180.673 221.023 180.673 220.245ZM197.048 220.083C197.048 220.354 197.03 220.598 196.994 220.815H191.505C191.55 221.357 191.74 221.782 192.074 222.089C192.408 222.396 192.82 222.55 193.307 222.55C194.012 222.55 194.514 222.247 194.812 221.642H196.859C196.642 222.364 196.226 222.961 195.612 223.431C194.997 223.892 194.243 224.122 193.348 224.122C192.625 224.122 191.975 223.964 191.396 223.648C190.827 223.322 190.38 222.866 190.054 222.279C189.738 221.691 189.58 221.014 189.58 220.245C189.58 219.468 189.738 218.786 190.054 218.199C190.371 217.611 190.813 217.16 191.383 216.843C191.952 216.527 192.607 216.369 193.348 216.369C194.062 216.369 194.699 216.523 195.259 216.83C195.829 217.137 196.267 217.575 196.574 218.145C196.89 218.705 197.048 219.351 197.048 220.083ZM195.083 219.541C195.074 219.053 194.898 218.664 194.554 218.375C194.211 218.077 193.791 217.928 193.294 217.928C192.824 217.928 192.426 218.072 192.101 218.361C191.785 218.642 191.591 219.035 191.518 219.541H195.083ZM202.06 224.122C201.446 224.122 200.894 224.014 200.406 223.797C199.918 223.571 199.53 223.268 199.241 222.889C198.961 222.509 198.807 222.089 198.78 221.628H200.691C200.727 221.917 200.867 222.157 201.111 222.346C201.364 222.536 201.676 222.631 202.046 222.631C202.408 222.631 202.688 222.559 202.887 222.414C203.095 222.27 203.199 222.084 203.199 221.858C203.199 221.614 203.072 221.434 202.819 221.316C202.575 221.19 202.182 221.054 201.64 220.91C201.08 220.774 200.619 220.634 200.257 220.489C199.905 220.345 199.598 220.123 199.336 219.825C199.083 219.527 198.956 219.125 198.956 218.619C198.956 218.203 199.074 217.824 199.309 217.48C199.552 217.137 199.896 216.866 200.339 216.667C200.79 216.468 201.319 216.369 201.924 216.369C202.819 216.369 203.533 216.595 204.066 217.047C204.599 217.489 204.893 218.09 204.947 218.849H203.131C203.104 218.551 202.977 218.316 202.751 218.145C202.534 217.964 202.241 217.873 201.87 217.873C201.527 217.873 201.26 217.937 201.071 218.063C200.89 218.19 200.799 218.366 200.799 218.592C200.799 218.845 200.926 219.039 201.179 219.175C201.432 219.301 201.825 219.432 202.358 219.568C202.9 219.703 203.348 219.843 203.7 219.988C204.052 220.133 204.355 220.358 204.608 220.666C204.87 220.964 205.006 221.361 205.015 221.858C205.015 222.292 204.893 222.681 204.649 223.024C204.414 223.367 204.071 223.639 203.619 223.837C203.176 224.027 202.656 224.122 202.06 224.122ZM210.199 224.122C209.585 224.122 209.033 224.014 208.545 223.797C208.057 223.571 207.669 223.268 207.38 222.889C207.1 222.509 206.946 222.089 206.919 221.628H208.83C208.866 221.917 209.006 222.157 209.25 222.346C209.503 222.536 209.815 222.631 210.185 222.631C210.547 222.631 210.827 222.559 211.026 222.414C211.234 222.27 211.338 222.084 211.338 221.858C211.338 221.614 211.211 221.434 210.958 221.316C210.714 221.19 210.321 221.054 209.779 220.91C209.219 220.774 208.758 220.634 208.396 220.489C208.044 220.345 207.737 220.123 207.475 219.825C207.222 219.527 207.095 219.125 207.095 218.619C207.095 218.203 207.213 217.824 207.448 217.48C207.691 217.137 208.035 216.866 208.478 216.667C208.929 216.468 209.458 216.369 210.063 216.369C210.958 216.369 211.672 216.595 212.205 217.047C212.738 217.489 213.032 218.09 213.086 218.849H211.27C211.243 218.551 211.116 218.316 210.89 218.145C210.673 217.964 210.38 217.873 210.009 217.873C209.666 217.873 209.399 217.937 209.21 218.063C209.029 218.19 208.938 218.366 208.938 218.592C208.938 218.845 209.065 219.039 209.318 219.175C209.571 219.301 209.964 219.432 210.497 219.568C211.039 219.703 211.487 219.843 211.839 219.988C212.191 220.133 212.494 220.358 212.747 220.666C213.009 220.964 213.145 221.361 213.154 221.858C213.154 222.292 213.032 222.681 212.788 223.024C212.553 223.367 212.21 223.639 211.758 223.837C211.315 224.027 210.795 224.122 210.199 224.122ZM88.2016 235.596C87.8672 235.596 87.5871 235.492 87.3612 235.285C87.1443 235.068 87.0359 234.801 87.0359 234.485C87.0359 234.169 87.1443 233.907 87.3612 233.699C87.5871 233.482 87.8672 233.373 88.2016 233.373C88.5359 233.373 88.8115 233.482 89.0284 233.699C89.2543 233.907 89.3672 234.169 89.3672 234.485C89.3672 234.801 89.2543 235.068 89.0284 235.285C88.8115 235.492 88.5359 235.596 88.2016 235.596ZM89.1368 236.491V244H87.2392V236.491H89.1368ZM95.9258 236.383C96.8204 236.383 97.5433 236.667 98.0945 237.236C98.6457 237.797 98.9213 238.583 98.9213 239.595V244H97.0237V239.852C97.0237 239.256 96.8746 238.8 96.5764 238.483C96.2782 238.158 95.8716 237.995 95.3565 237.995C94.8324 237.995 94.4167 238.158 94.1095 238.483C93.8113 238.8 93.6622 239.256 93.6622 239.852V244H91.7646V236.491H93.6622V237.426C93.9152 237.101 94.236 236.848 94.6246 236.667C95.0222 236.477 95.4559 236.383 95.9258 236.383ZM104.974 240.218C104.974 239.459 105.123 238.786 105.421 238.199C105.728 237.611 106.144 237.16 106.668 236.843C107.192 236.527 107.775 236.369 108.416 236.369C108.904 236.369 109.37 236.477 109.812 236.694C110.255 236.902 110.608 237.182 110.87 237.535V233.97H112.794V244H110.87V242.889C110.635 243.259 110.305 243.557 109.88 243.783C109.455 244.009 108.963 244.122 108.403 244.122C107.77 244.122 107.192 243.959 106.668 243.634C106.144 243.309 105.728 242.852 105.421 242.265C105.123 241.669 104.974 240.986 104.974 240.218ZM110.883 240.245C110.883 239.785 110.793 239.392 110.612 239.066C110.431 238.732 110.187 238.479 109.88 238.307C109.573 238.127 109.243 238.036 108.891 238.036C108.538 238.036 108.213 238.122 107.915 238.294C107.617 238.465 107.373 238.718 107.183 239.053C107.002 239.378 106.912 239.767 106.912 240.218C106.912 240.67 107.002 241.068 107.183 241.411C107.373 241.745 107.617 242.003 107.915 242.184C108.222 242.364 108.547 242.455 108.891 242.455C109.243 242.455 109.573 242.369 109.88 242.197C110.187 242.017 110.431 241.764 110.612 241.438C110.793 241.104 110.883 240.706 110.883 240.245ZM122.381 240.083C122.381 240.354 122.363 240.598 122.327 240.815H116.837C116.883 241.357 117.072 241.782 117.407 242.089C117.741 242.396 118.152 242.55 118.64 242.55C119.345 242.55 119.846 242.247 120.145 241.642H122.191C121.974 242.364 121.559 242.961 120.944 243.431C120.33 243.892 119.575 244.122 118.681 244.122C117.958 244.122 117.307 243.964 116.729 243.648C116.16 243.322 115.712 242.866 115.387 242.279C115.071 241.691 114.913 241.014 114.913 240.245C114.913 239.468 115.071 238.786 115.387 238.199C115.703 237.611 116.146 237.16 116.715 236.843C117.285 236.527 117.94 236.369 118.681 236.369C119.395 236.369 120.032 236.523 120.592 236.83C121.161 237.137 121.599 237.575 121.907 238.145C122.223 238.705 122.381 239.351 122.381 240.083ZM120.416 239.541C120.407 239.053 120.231 238.664 119.887 238.375C119.544 238.077 119.124 237.928 118.627 237.928C118.157 237.928 117.759 238.072 117.434 238.361C117.118 238.642 116.923 239.035 116.851 239.541H120.416ZM127.65 242.252L129.548 236.491H131.567L128.789 244H126.485L123.719 236.491H125.753L127.65 242.252ZM134.349 235.596C134.014 235.596 133.734 235.492 133.508 235.285C133.291 235.068 133.183 234.801 133.183 234.485C133.183 234.169 133.291 233.907 133.508 233.699C133.734 233.482 134.014 233.373 134.349 233.373C134.683 233.373 134.958 233.482 135.175 233.699C135.401 233.907 135.514 234.169 135.514 234.485C135.514 234.801 135.401 235.068 135.175 235.285C134.958 235.492 134.683 235.596 134.349 235.596ZM135.284 236.491V244H133.386V236.491H135.284ZM137.424 240.245C137.424 239.468 137.582 238.791 137.898 238.212C138.214 237.625 138.653 237.173 139.213 236.857C139.773 236.532 140.415 236.369 141.138 236.369C142.068 236.369 142.836 236.604 143.442 237.074C144.056 237.535 144.467 238.185 144.675 239.026H142.628C142.52 238.7 142.335 238.447 142.073 238.267C141.82 238.077 141.503 237.982 141.124 237.982C140.582 237.982 140.153 238.181 139.836 238.578C139.52 238.967 139.362 239.523 139.362 240.245C139.362 240.959 139.52 241.515 139.836 241.913C140.153 242.301 140.582 242.495 141.124 242.495C141.892 242.495 142.394 242.152 142.628 241.465H144.675C144.467 242.279 144.056 242.925 143.442 243.404C142.827 243.883 142.059 244.122 141.138 244.122C140.415 244.122 139.773 243.964 139.213 243.648C138.653 243.322 138.214 242.87 137.898 242.292C137.582 241.705 137.424 241.023 137.424 240.245ZM153.799 240.083C153.799 240.354 153.781 240.598 153.745 240.815H148.255C148.3 241.357 148.49 241.782 148.824 242.089C149.159 242.396 149.57 242.55 150.058 242.55C150.763 242.55 151.264 242.247 151.562 241.642H153.609C153.392 242.364 152.976 242.961 152.362 243.431C151.748 243.892 150.993 244.122 150.098 244.122C149.376 244.122 148.725 243.964 148.147 243.648C147.577 243.322 147.13 242.866 146.805 242.279C146.489 241.691 146.33 241.014 146.33 240.245C146.33 239.468 146.489 238.786 146.805 238.199C147.121 237.611 147.564 237.16 148.133 236.843C148.702 236.527 149.358 236.369 150.098 236.369C150.812 236.369 151.449 236.523 152.01 236.83C152.579 237.137 153.017 237.575 153.324 238.145C153.641 238.705 153.799 239.351 153.799 240.083ZM151.833 239.541C151.824 239.053 151.648 238.664 151.305 238.375C150.961 238.077 150.541 237.928 150.044 237.928C149.574 237.928 149.177 238.072 148.851 238.361C148.535 238.642 148.341 239.035 148.269 239.541H151.833ZM163.186 244.095C162.527 244.095 161.93 243.982 161.397 243.756C160.873 243.53 160.457 243.205 160.15 242.78C159.843 242.355 159.685 241.854 159.676 241.276H161.709C161.736 241.664 161.871 241.971 162.115 242.197C162.368 242.423 162.712 242.536 163.145 242.536C163.588 242.536 163.936 242.432 164.189 242.224C164.442 242.008 164.569 241.727 164.569 241.384C164.569 241.104 164.483 240.873 164.311 240.693C164.139 240.512 163.923 240.372 163.661 240.273C163.408 240.164 163.055 240.047 162.603 239.92C161.989 239.739 161.487 239.563 161.099 239.392C160.719 239.211 160.389 238.944 160.109 238.592C159.838 238.23 159.703 237.752 159.703 237.155C159.703 236.595 159.843 236.107 160.123 235.691C160.403 235.276 160.796 234.959 161.302 234.742C161.808 234.517 162.386 234.404 163.037 234.404C164.013 234.404 164.804 234.643 165.409 235.122C166.024 235.592 166.362 236.252 166.426 237.101H164.338C164.32 236.776 164.18 236.509 163.918 236.301C163.665 236.084 163.326 235.976 162.902 235.976C162.531 235.976 162.233 236.071 162.007 236.261C161.79 236.45 161.682 236.726 161.682 237.087C161.682 237.34 161.763 237.553 161.926 237.724C162.097 237.887 162.305 238.023 162.549 238.131C162.802 238.23 163.155 238.348 163.606 238.483C164.221 238.664 164.722 238.845 165.111 239.026C165.499 239.206 165.834 239.477 166.114 239.839C166.394 240.2 166.534 240.675 166.534 241.262C166.534 241.768 166.403 242.238 166.141 242.672C165.879 243.105 165.495 243.453 164.989 243.715C164.483 243.968 163.882 244.095 163.186 244.095ZM175.913 240.083C175.913 240.354 175.895 240.598 175.858 240.815H170.369C170.414 241.357 170.604 241.782 170.938 242.089C171.273 242.396 171.684 242.55 172.172 242.55C172.876 242.55 173.378 242.247 173.676 241.642H175.723C175.506 242.364 175.09 242.961 174.476 243.431C173.861 243.892 173.107 244.122 172.212 244.122C171.489 244.122 170.839 243.964 170.261 243.648C169.691 243.322 169.244 242.866 168.919 242.279C168.602 241.691 168.444 241.014 168.444 240.245C168.444 239.468 168.602 238.786 168.919 238.199C169.235 237.611 169.678 237.16 170.247 236.843C170.816 236.527 171.471 236.369 172.212 236.369C172.926 236.369 173.563 236.523 174.123 236.83C174.693 237.137 175.131 237.575 175.438 238.145C175.754 238.705 175.913 239.351 175.913 240.083ZM173.947 239.541C173.938 239.053 173.762 238.664 173.419 238.375C173.075 238.077 172.655 237.928 172.158 237.928C171.688 237.928 171.291 238.072 170.965 238.361C170.649 238.642 170.455 239.035 170.382 239.541H173.947ZM180.26 238.05V241.682C180.26 241.935 180.319 242.12 180.436 242.238C180.563 242.346 180.771 242.401 181.06 242.401H181.941V244H180.748C179.149 244 178.349 243.223 178.349 241.669V238.05H177.454V236.491H178.349V234.634H180.26V236.491H181.941V238.05H180.26ZM186.268 238.05V241.682C186.268 241.935 186.327 242.12 186.444 242.238C186.571 242.346 186.779 242.401 187.068 242.401H187.949V244H186.756C185.157 244 184.357 243.223 184.357 241.669V238.05H183.462V236.491H184.357V234.634H186.268V236.491H187.949V238.05H186.268ZM191.029 235.596C190.695 235.596 190.414 235.492 190.189 235.285C189.972 235.068 189.863 234.801 189.863 234.485C189.863 234.169 189.972 233.907 190.189 233.699C190.414 233.482 190.695 233.373 191.029 233.373C191.363 233.373 191.639 233.482 191.856 233.699C192.082 233.907 192.195 234.169 192.195 234.485C192.195 234.801 192.082 235.068 191.856 235.285C191.639 235.492 191.363 235.596 191.029 235.596ZM191.964 236.491V244H190.067V236.491H191.964ZM198.753 236.383C199.648 236.383 200.371 236.667 200.922 237.236C201.473 237.797 201.749 238.583 201.749 239.595V244H199.851V239.852C199.851 239.256 199.702 238.8 199.404 238.483C199.106 238.158 198.699 237.995 198.184 237.995C197.66 237.995 197.244 238.158 196.937 238.483C196.639 238.8 196.49 239.256 196.49 239.852V244H194.592V236.491H196.49V237.426C196.743 237.101 197.063 236.848 197.452 236.667C197.849 236.477 198.283 236.383 198.753 236.383ZM207.247 236.369C207.808 236.369 208.3 236.482 208.725 236.708C209.149 236.925 209.484 237.209 209.728 237.562V236.491H211.639V244.054C211.639 244.75 211.499 245.369 211.219 245.911C210.939 246.462 210.518 246.896 209.958 247.212C209.398 247.538 208.72 247.7 207.925 247.7C206.859 247.7 205.982 247.452 205.296 246.955C204.618 246.458 204.234 245.78 204.143 244.922H206.027C206.127 245.265 206.339 245.536 206.665 245.735C206.999 245.943 207.401 246.047 207.871 246.047C208.422 246.047 208.869 245.88 209.213 245.545C209.556 245.22 209.728 244.723 209.728 244.054V242.889C209.484 243.241 209.145 243.535 208.711 243.77C208.287 244.005 207.799 244.122 207.247 244.122C206.615 244.122 206.037 243.959 205.512 243.634C204.988 243.309 204.573 242.852 204.265 242.265C203.967 241.669 203.818 240.986 203.818 240.218C203.818 239.459 203.967 238.786 204.265 238.199C204.573 237.611 204.984 237.16 205.499 236.843C206.023 236.527 206.606 236.369 207.247 236.369ZM209.728 240.245C209.728 239.785 209.637 239.392 209.457 239.066C209.276 238.732 209.032 238.479 208.725 238.307C208.418 238.127 208.088 238.036 207.735 238.036C207.383 238.036 207.058 238.122 206.759 238.294C206.461 238.465 206.217 238.718 206.027 239.053C205.847 239.378 205.756 239.767 205.756 240.218C205.756 240.67 205.847 241.068 206.027 241.411C206.217 241.745 206.461 242.003 206.759 242.184C207.067 242.364 207.392 242.455 207.735 242.455C208.088 242.455 208.418 242.369 208.725 242.197C209.032 242.017 209.276 241.764 209.457 241.438C209.637 241.104 209.728 240.706 209.728 240.245ZM217.119 244.122C216.504 244.122 215.953 244.014 215.465 243.797C214.977 243.571 214.589 243.268 214.3 242.889C214.019 242.509 213.866 242.089 213.839 241.628H215.75C215.786 241.917 215.926 242.157 216.17 242.346C216.423 242.536 216.735 242.631 217.105 242.631C217.467 242.631 217.747 242.559 217.946 242.414C218.153 242.27 218.257 242.084 218.257 241.858C218.257 241.614 218.131 241.434 217.878 241.316C217.634 241.19 217.241 241.054 216.699 240.91C216.138 240.774 215.678 240.634 215.316 240.489C214.964 240.345 214.656 240.123 214.394 239.825C214.141 239.527 214.015 239.125 214.015 238.619C214.015 238.203 214.132 237.824 214.367 237.48C214.611 237.137 214.955 236.866 215.397 236.667C215.849 236.468 216.378 236.369 216.983 236.369C217.878 236.369 218.592 236.595 219.125 237.047C219.658 237.489 219.952 238.09 220.006 238.849H218.19C218.162 238.551 218.036 238.316 217.81 238.145C217.593 237.964 217.3 237.873 216.929 237.873C216.586 237.873 216.319 237.937 216.129 238.063C215.949 238.19 215.858 238.366 215.858 238.592C215.858 238.845 215.985 239.039 216.238 239.175C216.491 239.301 216.884 239.432 217.417 239.568C217.959 239.703 218.406 239.843 218.759 239.988C219.111 240.133 219.414 240.358 219.667 240.666C219.929 240.964 220.065 241.361 220.074 241.858C220.074 242.292 219.952 242.681 219.708 243.024C219.473 243.367 219.129 243.639 218.678 243.837C218.235 244.027 217.715 244.122 217.119 244.122Z" fill="#A0A8D4" style="fill:#A0A8D4;fill:color(display-p3 0.6275 0.6588 0.8314);fill-opacity:1;"/>
</svg>
